# xmcd
#
# Track frame offsets: 
#        150
#        20105
#        39987
#        57487
#        81912
#        98392
#        108470
#        129100
#        144197
#        165207
#        182145
#        201872
#        224950
#        244800
#        269430
#        293667
#
# Disc length: 4227 seconds
#
# Revision: 23
# Processed by: cddbd v1.5.2PL0 Copyright (c) Steve Scherf et al.
# Submitted via: ExactAudioCopy v1.1
#
DISCID=e3108110
DTITLE=Aerosmith - O, Yeah! Ultimate Aerosmith Hits
DYEAR=2002
DGENRE=Hard Rock
TTITLE0=Mama Kin
TTITLE1=Dream On
TTITLE2=Same Old Song and Dance
TTITLE3=Seasons of Wither
TTITLE4=Walk This Way
TTITLE5=Big Ten Inch Record
TTITLE6=Sweet Emotion
TTITLE7=Last Child
TTITLE8=Back in the Saddle
TTITLE9=Draw the Line
TTITLE10=Dude (Looks Like a Lady)
TTITLE11=Angel
TTITLE12=Rag Doll
TTITLE13=Janie's Got a Gun
TTITLE14=Love in an Elevator
TTITLE15=What It Takes
EXTD=
EXTT0=
EXTT1=
EXTT2=
EXTT3=
EXTT4=
EXTT5=
EXTT6=
EXTT7=
EXTT8=
EXTT9=
EXTT10=
EXTT11=
EXTT12=
EXTT13=
EXTT14=
EXTT15=
PLAYORDER=
